<svg height="512pt" viewBox="0 0 512 512" width="512pt" xmlns="http://www.w3.org/2000/svg"><path d="m7.5 7.5h497v497h-497zm0 0" fill="#7a727d"/><path d="m474.5 7.5h30v497h-30zm0 0" fill="#645c69"/><path d="m504.5 106.5v299h-497v-299zm0 0" fill="#ffee58"/><path d="m474.5 106.5h30v299h-30zm0 0" fill="#fdd835"/><g fill="#e3e6eb"><path d="m37.5 37.5h40v40h-40zm0 0"/><path d="m116.898438 37.5h40v40h-40zm0 0"/><path d="m196.300781 37.5h40v40h-40zm0 0"/><path d="m275.699219 37.5h40v40h-40zm0 0"/><path d="m355.101562 37.5h40v40h-40zm0 0"/><path d="m434.5 37.5h40v40h-40zm0 0"/><path d="m37.5 434.5h40v40h-40zm0 0"/><path d="m116.898438 434.5h40v40h-40zm0 0"/><path d="m196.300781 434.5h40v40h-40zm0 0"/><path d="m275.699219 434.5h40v40h-40zm0 0"/><path d="m355.101562 434.5h40v40h-40zm0 0"/><path d="m434.5 434.5h40v40h-40zm0 0"/><path d="m154 263.429688v-80.285157c0-62.992187 46.136719-42.640625 102-42.640625s102-20.351562 102 42.640625v80.285157c0 62.925781-45.617188 113.9375-101.890625 113.9375h-.21875c-56.273437 0-101.890625-51.011719-101.890625-113.9375zm0 0"/></g><path d="m297.589844 138.152344c18.726562 2.703125 30.410156 13.292968 30.410156 44.992187v80.285157c0 57.269531-37.785156 104.664062-87 112.722656 4.859375.796875 9.832031 1.214844 14.890625 1.214844h.21875c56.273437 0 101.890625-51.011719 101.890625-113.9375v-80.285157c0-46.339843-24.96875-47.578125-60.410156-44.992187zm0 0" fill="#c4c7cc"/><path d="m340.625 271.613281c0 14.914063-8.058594 20.746094-18 20.746094s-18-5.832031-18-20.746094c0-14.910156 14.183594-33.253906 18-33.253906s18 18.34375 18 33.253906zm0 0" fill="#42a5f5"/><path d="m207.375 271.613281c0 14.914063-8.058594 20.746094-18 20.746094s-18-5.832031-18-20.746094c0-14.910156 14.183594-33.253906 18-33.253906s18 18.34375 18 33.253906zm0 0" fill="#42a5f5"/><path d="m504.5 0h-440.5c-4.140625 0-7.5 3.355469-7.5 7.5s3.359375 7.5 7.5 7.5h433v84h-482v-84h17.5c4.140625 0 7.5-3.355469 7.5-7.5s-3.359375-7.5-7.5-7.5h-25c-4.140625 0-7.5 3.355469-7.5 7.5v497c0 4.144531 3.359375 7.5 7.5 7.5h408.832031c4.144531 0 7.5-3.355469 7.5-7.5s-3.355469-7.5-7.5-7.5h-401.332031v-84h482v84h-48.667969c-4.140625 0-7.5 3.355469-7.5 7.5s3.359375 7.5 7.5 7.5h56.167969c4.144531 0 7.5-3.355469 7.5-7.5v-497c0-4.144531-3.355469-7.5-7.5-7.5zm-489.5 398v-284h482v284zm0 0"/><path d="m30 37.5v40c0 4.144531 3.359375 7.5 7.5 7.5h40c4.140625 0 7.5-3.355469 7.5-7.5v-40c0-4.144531-3.359375-7.5-7.5-7.5h-40c-4.140625 0-7.5 3.355469-7.5 7.5zm15 7.5h25v25h-25zm0 0"/><path d="m156.898438 85c4.144531 0 7.5-3.355469 7.5-7.5v-40c0-4.144531-3.355469-7.5-7.5-7.5h-40c-4.140626 0-7.5 3.355469-7.5 7.5v40c0 4.144531 3.359374 7.5 7.5 7.5zm-32.5-40h25v25h-25zm0 0"/><path d="m236.300781 85c4.140625 0 7.5-3.355469 7.5-7.5v-40c0-4.144531-3.359375-7.5-7.5-7.5h-40c-4.144531 0-7.5 3.355469-7.5 7.5v40c0 4.144531 3.355469 7.5 7.5 7.5zm-32.5-40h25v25h-25zm0 0"/><path d="m315.699219 85c4.144531 0 7.5-3.355469 7.5-7.5v-40c0-4.144531-3.355469-7.5-7.5-7.5h-40c-4.140625 0-7.5 3.355469-7.5 7.5v40c0 4.144531 3.359375 7.5 7.5 7.5zm-32.5-40h25v25h-25zm0 0"/><path d="m395.101562 85c4.140626 0 7.5-3.355469 7.5-7.5v-40c0-4.144531-3.359374-7.5-7.5-7.5h-40c-4.144531 0-7.5 3.355469-7.5 7.5v40c0 4.144531 3.355469 7.5 7.5 7.5zm-32.5-40h25v25h-25zm0 0"/><path d="m474.5 85c4.144531 0 7.5-3.355469 7.5-7.5v-40c0-4.144531-3.355469-7.5-7.5-7.5h-40c-4.144531 0-7.5 3.355469-7.5 7.5v40c0 4.144531 3.355469 7.5 7.5 7.5zm-32.5-40h25v25h-25zm0 0"/><path d="m37.5 427c-4.140625 0-7.5 3.355469-7.5 7.5v40c0 4.144531 3.359375 7.5 7.5 7.5h40c4.140625 0 7.5-3.355469 7.5-7.5v-40c0-4.144531-3.359375-7.5-7.5-7.5zm32.5 40h-25v-25h25zm0 0"/><path d="m116.898438 427c-4.140626 0-7.5 3.355469-7.5 7.5v40c0 4.144531 3.359374 7.5 7.5 7.5h40c4.144531 0 7.5-3.355469 7.5-7.5v-40c0-4.144531-3.355469-7.5-7.5-7.5zm32.5 40h-25v-25h25zm0 0"/><path d="m196.300781 427c-4.144531 0-7.5 3.355469-7.5 7.5v40c0 4.144531 3.355469 7.5 7.5 7.5h40c4.140625 0 7.5-3.355469 7.5-7.5v-40c0-4.144531-3.359375-7.5-7.5-7.5zm32.5 40h-25v-25h25zm0 0"/><path d="m275.699219 427c-4.140625 0-7.5 3.355469-7.5 7.5v40c0 4.144531 3.359375 7.5 7.5 7.5h40c4.144531 0 7.5-3.355469 7.5-7.5v-40c0-4.144531-3.355469-7.5-7.5-7.5zm32.5 40h-25v-25h25zm0 0"/><path d="m355.101562 427c-4.144531 0-7.5 3.355469-7.5 7.5v40c0 4.144531 3.355469 7.5 7.5 7.5h40c4.140626 0 7.5-3.355469 7.5-7.5v-40c0-4.144531-3.359374-7.5-7.5-7.5zm32.5 40h-25v-25h25zm0 0"/><path d="m482 474.5v-40c0-4.144531-3.355469-7.5-7.5-7.5h-40c-4.144531 0-7.5 3.355469-7.5 7.5v40c0 4.144531 3.355469 7.5 7.5 7.5h40c4.144531 0 7.5-3.355469 7.5-7.5zm-15-7.5h-25v-25h25zm0 0"/><path d="m358 199.25c4.144531 0 7.5-3.355469 7.5-7.5v-8.605469c0-19.964843-4.511719-33.835937-13.785156-42.40625-14.367188-13.273437-36.816406-11.496093-62.808594-9.4375-10.570312.835938-21.5 1.703125-32.90625 1.703125s-22.335938-.867187-32.90625-1.703125c-25.992188-2.058593-48.441406-3.835937-62.808594 9.4375-9.277344 8.570313-13.785156 22.441407-13.785156 42.40625v80.285157c0 66.960937 49.070312 121.4375 109.390625 121.4375h.21875c60.316406 0 109.390625-54.476563 109.390625-121.4375v-39.429688c0-4.144531-3.355469-7.5-7.5-7.5s-7.5 3.355469-7.5 7.5v39.429688c0 58.691406-42.34375 106.4375-94.390625 106.4375h-.21875c-52.046875 0-94.390625-47.746094-94.390625-106.4375v-80.285157c0-15.546875 2.929688-25.816406 8.964844-31.390625 9.546875-8.816406 28.960937-7.28125 51.445312-5.5 10.351563.820313 22.085938 1.75 34.089844 1.75 12 0 23.734375-.929687 34.089844-1.75 22.480468-1.78125 41.898437-3.320312 51.445312 5.5 6.03125 5.574219 8.964844 15.84375 8.964844 31.390625v8.605469c0 4.144531 3.355469 7.5 7.5 7.5zm0 0"/><path d="m299.675781 225.398438c19.84375 0 31.269531-15.695313 31.746094-16.363282 2.40625-3.371094 1.625-8.054687-1.746094-10.460937-3.371093-2.40625-8.058593-1.621094-10.460937 1.75-.074219.101562-7.527344 10.074219-19.539063 10.074219-11.019531 0-15.648437-8.554688-15.910156-9.058594-1.828125-3.679688-6.285156-5.203125-9.988281-3.40625-3.726563 1.808594-5.28125 6.296875-3.472656 10.019531.34375.714844 8.707031 17.445313 29.371093 17.445313zm0 0"/><path d="m212.324219 225.398438c20.664062 0 29.023437-16.730469 29.371093-17.441407 1.808594-3.726562.273438-8.253906-3.453124-10.0625-3.730469-1.808593-8.195313-.292969-10.003907 3.433594-.191406.371094-4.804687 9.070313-15.914062 9.070313-11.992188 0-19.492188-10.015626-19.539063-10.074219-2.40625-3.371094-7.089844-4.152344-10.460937-1.75-3.371094 2.40625-4.152344 7.089843-1.75 10.460937.480469.667969 11.90625 16.363282 31.75 16.363282zm0 0"/><path d="m216.160156 319.144531c.125-.058593 12.652344-5.644531 37.792969-5.644531 25.707031 0 42.34375 5.839844 42.492187 5.894531 3.898438 1.414063 8.195313-.605469 9.605469-4.496093 1.414063-3.894532-.601562-8.195313-4.496093-9.609376-.765626-.273437-19.066407-6.789062-47.601563-6.789062-28.898437 0-43.550781 6.773438-44.160156 7.0625-3.742188 1.773438-5.367188 6.253906-3.59375 10 1.777343 3.761719 6.238281 5.34375 9.960937 3.582031zm0 0"/><path d="m348.125 271.613281c0-10.640625-5.453125-20.976562-8.703125-26.1875-6.027344-9.664062-11.679687-14.566406-16.796875-14.566406-5.113281 0-10.765625 4.902344-16.792969 14.566406-3.253906 5.214844-8.707031 15.546875-8.707031 26.1875 0 20.824219 13.175781 28.246094 25.5 28.246094 12.328125 0 25.5-7.421875 25.5-28.246094zm-36 0c0-8.488281 6.375-19.0625 10.5-23.917969 4.128906 4.855469 10.5 15.429688 10.5 23.917969 0 6.167969-1.191406 13.246094-10.5 13.246094-9.304688 0-10.5-7.078125-10.5-13.246094zm0 0"/><path d="m163.875 271.613281c0 20.824219 13.171875 28.246094 25.5 28.246094s25.5-7.421875 25.5-28.246094c0-10.640625-5.453125-20.976562-8.707031-26.1875-6.027344-9.664062-11.679688-14.566406-16.792969-14.566406-5.117188 0-10.769531 4.902344-16.796875 14.566406-3.25 5.214844-8.703125 15.546875-8.703125 26.1875zm25.5-23.917969c4.125 4.855469 10.5 15.429688 10.5 23.917969 0 6.167969-1.195312 13.246094-10.5 13.246094-9.308594 0-10.5-7.078125-10.5-13.246094 0-8.488281 6.371094-19.0625 10.5-23.917969zm0 0"/></svg>